<svg width="32" height="32" viewBox="0 0 32 32" fill="none" xmlns="http://www.w3.org/2000/svg">
<path d="M16.0022 27C16.0022 27 3.5022 20 3.5022 11.5C3.50245 9.99768 4.02301 8.5418 4.97538 7.3799C5.92774 6.21801 7.25313 5.42181 8.72618 5.12669C10.1992 4.83156 11.7291 5.05572 13.0555 5.76105C14.382 6.46638 15.4232 7.60935 16.0022 8.99563L16.0022 8.99565C16.5812 7.60936 17.6224 6.46639 18.9489 5.76106C20.2753 5.05572 21.8051 4.83156 23.2782 5.12669C24.7513 5.42181 26.0766 6.21801 27.029 7.3799C27.9814 8.5418 28.5019 9.99768 28.5022 11.5C28.5022 20 16.0022 27 16.0022 27Z" stroke="#E1003C" stroke-width="3" stroke-linecap="round" stroke-linejoin="round"/>
</svg>