<svg width="32" height="32" viewBox="0 0 32 32" fill="none" xmlns="http://www.w3.org/2000/svg">
<path d="M27 8.5H5C4.44772 8.5 4 8.94772 4 9.5V25.5C4 26.0523 4.44772 26.5 5 26.5H27C27.5523 26.5 28 26.0523 28 25.5V9.5C28 8.94772 27.5523 8.5 27 8.5Z" stroke="#E1003C" stroke-width="3" stroke-linecap="round" stroke-linejoin="round"/>
<path d="M21 26.5V6C21 5.46957 20.7893 4.96086 20.4142 4.58579C20.0391 4.21071 19.5304 4 19 4H13C12.4696 4 11.9609 4.21071 11.5858 4.58579C11.2107 4.96086 11 5.46957 11 6V26.5" stroke="#E1003C" stroke-width="3" stroke-linecap="round" stroke-linejoin="round"/>
</svg>