<?xml version="1.0" encoding="UTF-8"?>
<!-- Generator: Adobe Illustrator 25.4.1, SVG Export Plug-In . SVG Version: 6.00 Build 0)  -->
<svg version="1.1" id="Layer_1" xmlns="http://www.w3.org/2000/svg" xmlns:xlink="http://www.w3.org/1999/xlink" x="0px" y="0px" viewBox="0 0 66.7 214.3" style="enable-background:new 0 0 66.7 214.3;" xml:space="preserve">
<style type="text/css">
	.st0{fill:#E0143D;}
</style>
<path class="st0" d="M0,49.9c0,0,3,9.4,13.9,8.1L36,50.6l5-1.4l1.6-0.3c4.6,0,8.4,3.7,8.4,8.4c0,2.3-0.9,4.4-2.5,5.9  c-8.4,10.4-32.3,23.1-32.3,48.8c0,39.2,44.2,41.4,44.2,70.8c0,14.4-10.2,23.6-20.8,23.6c-7.4,0-9.6-2-10-2.4l0-0.1  c5.3,0.4,10.2-2.2,12.5-6.6c2.6-5,0.5-10.2,0.3-10.5c-0.5-1-1.5-2.9-3.4-4.4c-3-2.4-7.1-3.2-10.5-2.4c-5.8,1.4-9.1,7-10,11.4  c-1.7,8.5,4.9,16.4,10.6,19.8c0,0,7,4.2,19.5,2.9c9.6-1,17.5-5.4,17.5-5.4l0.2-0.1c0.1-0.1,0.3-0.2,0.4-0.2v-96.4l-0.1,0l0.1,0V4.2  C61.7,1.6,55.4,0,48.1,0C36.8,0,31.7,3.3,31.7,3.3v2.9C31.5,29,17.4,44.8,0,49.9z M32.1,35.7c0-2.1,1.7-3.8,3.8-3.8  c2.1,0,3.8,1.7,3.8,3.8c0,2.1-1.7,3.8-3.8,3.8C33.8,39.4,32.1,37.7,32.1,35.7z"/>
</svg>